<svg version="1" xmlns="http://www.w3.org/2000/svg" viewBox="0 0 463 463"><path d="M289 90a23 23 0 1 0 0 47 23 23 0 0 0 0-47zm0 32a8 8 0 1 1 0-17 8 8 0 0 1 0 17zM373 150a23 23 0 1 0-1 47 23 23 0 0 0 1-47zm0 32a8 8 0 1 1-1-17 8 8 0 0 1 1 17zM74 258c-13 0-24 11-24 24s11 24 24 24a24 24 0 0 0 0-48zm0 33c-5 0-9-4-9-9s4-9 9-9 9 4 9 9-4 9-9 9zM140 239a24 24 0 1 0 0-48 24 24 0 0 0 0 48zm0-33c5 0 9 4 9 9s-4 9-9 9-9-4-9-9 4-9 9-9zM212 284a27 27 0 1 0 0 55 27 27 0 0 0 0-55zm0 40a13 13 0 1 1 0-25 13 13 0 0 1 0 25z"/><path d="M446 126l-4-4-6 1h-5c-14 0-26-11-26-25v-4c0-3-2-5-4-6s-5-2-7-1c-4 2-9 3-13 3-23 0-42-19-42-41 0-4-3-7-6-8l-19-1c-54 0-105 33-130 84l-23-1c-43 0-84 15-114 44-30 28-47 66-47 106 0 83 72 150 161 150 56 0 106-28 135-69l21 2c65 0 124-48 141-118 9-37 5-78-12-112zM161 408c-81 0-146-60-146-134 0-75 65-136 146-136s145 61 145 136c0 74-65 134-145 134zm283-174c-17 69-76 113-140 106 11-20 17-42 17-66 0-41-17-79-47-107-21-20-47-33-75-40 24-44 68-72 115-72h10c3 28 28 50 57 50l9-1c3 19 20 34 41 34h4c14 29 17 64 9 96z"/><path d="M236 217l-6 3v-5c0-4-3-8-7-8s-8 4-8 8v12l-12 6a8 8 0 1 0 7 14l5-3v5c0 4 4 7 8 7s7-3 7-7v-13l12-6c4-2 6-6 4-10s-7-5-10-3zM380 241v-1c0-4-4-8-8-8s-7 4-7 8v6l-11 3a8 8 0 0 0 2 15l2-1 7-2v13c0 4 3 7 7 7s8-3 8-7v-17l3-1c4-1 6-6 5-10-1-3-4-5-8-5zM157 342h-12l-6-14c-2-3-7-5-10-3s-6 6-4 10l3 7h-5c-4 0-7 3-7 7s3 8 7 8h13l5 12a8 8 0 0 0 11 3c3-1 5-6 3-10l-3-5h5c4 0 7-4 7-8s-3-7-7-7z"/></svg>